<svg width="140" height="35" viewBox="0 0 140 35" fill="none" xmlns="http://www.w3.org/2000/svg">
<path d="M34.9387 4.11274C38.2741 11.5577 34.5913 15.851 32.333 17.067C30.6703 15.305 27.2108 11.5577 26.6748 10.6643C31.5885 7.83525 32.333 4.55944 32.5563 3.07044C32.7797 1.58145 33.4497 1.13475 34.9387 4.11274Z" fill="#FF2D6D"/>
<path d="M34.9387 4.11274C38.2741 11.5577 34.5913 15.851 32.333 17.067C30.6703 15.305 27.2108 11.5577 26.6748 10.6643C31.5885 7.83525 32.333 4.55944 32.5563 3.07044C32.7797 1.58145 33.4497 1.13475 34.9387 4.11274Z" fill="#ED2A66"/>
<path d="M34.9387 4.11274C38.2741 11.5577 34.5913 15.851 32.333 17.067C30.6703 15.305 27.2108 11.5577 26.6748 10.6643C31.5885 7.83525 32.333 4.55944 32.5563 3.07044C32.7797 1.58145 33.4497 1.13475 34.9387 4.11274Z" fill="#FF8A00" fill-opacity="0.3"/>
<path d="M32.333 17.0668C30.6703 15.3048 27.2108 11.5575 26.6748 10.6641C28.0787 9.85581 29.1423 9.01104 29.9506 8.18188C33.2859 10.7226 33.6234 14.7171 33.3753 16.3968L32.333 17.0668Z" fill="#C6283D"/>
<path d="M27.1967 10.3664C20.2282 7.80532 12.5301 9.29927 9.5521 10.3664C6.12745 8.95182 4.56393 4.18707 4.26614 3.14477C3.96834 2.10248 3.59603 0.687935 1.88369 3.81482C-2.43439 12.5254 3.29832 16.6202 3.59603 16.8435C3.89374 17.0669 3.59612 17.2902 3.29832 21.7572C2.77718 28.4577 4.7793 33.5 8.6587 34.3392C12.2309 35.1119 19.7719 34.9692 25.4843 34.4881C31.2793 34 32.2593 30.6167 32.4826 29.7978C32.706 28.9788 33.9716 23.544 33.3016 19.077C32.6315 14.61 28.5368 10.8131 27.1967 10.3664Z" fill="#FF2D6D"/>
<path d="M27.1967 10.3664C20.2282 7.80532 12.5301 9.29927 9.5521 10.3664C6.12745 8.95182 4.56393 4.18707 4.26614 3.14477C3.96834 2.10248 3.59603 0.687935 1.88369 3.81482C-2.43439 12.5254 3.29832 16.6202 3.59603 16.8435C3.89374 17.0669 3.59612 17.2902 3.29832 21.7572C2.77718 28.4577 4.7793 33.5 8.6587 34.3392C12.2309 35.1119 19.7719 34.9692 25.4843 34.4881C31.2793 34 32.2593 30.6167 32.4826 29.7978C32.706 28.9788 33.9716 23.544 33.3016 19.077C32.6315 14.61 28.5368 10.8131 27.1967 10.3664Z" fill="#ED2A66"/>
<path d="M27.1967 10.3664C20.2282 7.80532 12.5301 9.29927 9.5521 10.3664C6.12745 8.95182 4.56393 4.18707 4.26614 3.14477C3.96834 2.10248 3.59603 0.687935 1.88369 3.81482C-2.43439 12.5254 3.29832 16.6202 3.59603 16.8435C3.89374 17.0669 3.59612 17.2902 3.29832 21.7572C2.77718 28.4577 4.7793 33.5 8.6587 34.3392C12.2309 35.1119 19.7719 34.9692 25.4843 34.4881C31.2793 34 32.2593 30.6167 32.4826 29.7978C32.706 28.9788 33.9716 23.544 33.3016 19.077C32.6315 14.61 28.5368 10.8131 27.1967 10.3664Z" fill="#FF8A00" fill-opacity="0.3"/>
<path d="M2.68652 2.53735C0.413631 11.5681 4.48924 14.0885 4.78711 14.3118C5.45712 14.8143 5.61183 15.8011 5.53125 19.2258C5.38236 25.5539 5.97805 28.9043 8.36035 31.51C10.1225 33.4374 12.4038 34.3553 17.085 34.8782C13.7236 34.907 10.6027 34.7598 8.6582 34.3391C4.77905 33.4997 2.77676 28.4573 3.29785 21.7571C3.59565 17.2901 3.89341 17.0664 3.5957 16.843C3.29485 16.6174 -2.433 12.5227 1.88379 3.8147C2.19252 3.25092 2.4575 2.83466 2.68652 2.53735Z" fill="#C6283D"/>
<ellipse cx="13.0293" cy="24.5" rx="2.75" ry="3" fill="#450C23"/>
<ellipse cx="25.0293" cy="24.5" rx="2.75" ry="3" fill="#450C23"/>
<path d="M19.4055 6.62909C22.7409 14.0741 19.0581 18.3673 16.7998 19.5833C15.1371 17.8214 11.6776 14.0741 11.1416 13.1807C16.0553 10.3516 16.7998 7.07579 17.0231 5.5868C17.2465 4.0978 17.9165 3.65111 19.4055 6.62909Z" fill="#FF2D6D"/>
<path d="M19.4055 6.62909C22.7409 14.0741 19.0581 18.3673 16.7998 19.5833C15.1371 17.8214 11.6776 14.0741 11.1416 13.1807C16.0553 10.3516 16.7998 7.07579 17.0231 5.5868C17.2465 4.0978 17.9165 3.65111 19.4055 6.62909Z" fill="#ED2A66"/>
<path d="M19.4055 6.62909C22.7409 14.0741 19.0581 18.3673 16.7998 19.5833C15.1371 17.8214 11.6776 14.0741 11.1416 13.1807C16.0553 10.3516 16.7998 7.07579 17.0231 5.5868C17.2465 4.0978 17.9165 3.65111 19.4055 6.62909Z" fill="#FF8A00" fill-opacity="0.3"/>
<path d="M20.1416 14.4903C20.9416 12.0616 20.6087 10.008 20.2754 8.99609C20.2754 8.99609 21.5059 9.03516 22.3301 9.19141C22.2377 9.61815 20.9416 13.2759 20.1416 14.4903Z" fill="#C6283D"/>
<path d="M61.3111 15.1662H59.3168C59.2401 14.7401 59.0973 14.3651 58.8885 14.0412C58.6797 13.7173 58.424 13.4425 58.1214 13.2166C57.8189 12.9908 57.4801 12.8203 57.1051 12.7053C56.7344 12.5902 56.3402 12.5327 55.9226 12.5327C55.1683 12.5327 54.4929 12.7223 53.8963 13.1016C53.304 13.4808 52.8352 14.0369 52.4901 14.7699C52.1491 15.5028 51.9787 16.3977 51.9787 17.4545C51.9787 18.5199 52.1491 19.419 52.4901 20.152C52.8352 20.8849 53.3061 21.4389 53.9027 21.8139C54.4993 22.1889 55.1705 22.3764 55.9162 22.3764C56.3295 22.3764 56.7216 22.321 57.0923 22.2102C57.4673 22.0952 57.8061 21.9268 58.1087 21.7053C58.4112 21.4837 58.6669 21.2131 58.8757 20.8935C59.0888 20.5696 59.2358 20.1989 59.3168 19.7812L61.3111 19.7876C61.2045 20.4311 60.9979 21.0234 60.6911 21.5646C60.3885 22.1016 59.9986 22.5661 59.5213 22.9581C59.0483 23.3459 58.5071 23.6463 57.8977 23.8594C57.2884 24.0724 56.6236 24.179 55.9034 24.179C54.7699 24.179 53.7599 23.9105 52.8736 23.3736C51.9872 22.8324 51.2884 22.0589 50.777 21.0533C50.2699 20.0476 50.0163 18.848 50.0163 17.4545C50.0163 16.0568 50.272 14.8572 50.7834 13.8558C51.2947 12.8501 51.9936 12.0788 52.88 11.5419C53.7663 11.0007 54.7741 10.7301 55.9034 10.7301C56.598 10.7301 57.2457 10.8303 57.8466 11.0305C58.4517 11.2266 58.995 11.5163 59.4766 11.8999C59.9581 12.2791 60.3565 12.7436 60.6719 13.2933C60.9872 13.8388 61.2003 14.4631 61.3111 15.1662ZM65.6324 18.1705V24H63.7211V10.9091H65.6068V15.7798H65.7282C65.9583 15.2514 66.3099 14.8317 66.7829 14.5206C67.2559 14.2095 67.8738 14.054 68.6366 14.054C69.3099 14.054 69.898 14.1925 70.4008 14.4695C70.9079 14.7464 71.3 15.1598 71.577 15.7095C71.8582 16.255 71.9988 16.9368 71.9988 17.755V24H70.0876V17.9851C70.0876 17.2649 69.9022 16.7067 69.5315 16.3104C69.1608 15.9098 68.6451 15.7095 67.9846 15.7095C67.5329 15.7095 67.1281 15.8054 66.7701 15.9972C66.4164 16.1889 66.1373 16.4702 65.9328 16.8409C65.7325 17.2074 65.6324 17.6506 65.6324 18.1705ZM77.6065 24.2173C76.9843 24.2173 76.4218 24.1023 75.919 23.8722C75.4162 23.6378 75.0177 23.299 74.7237 22.8558C74.4339 22.4126 74.289 21.8693 74.289 21.2259C74.289 20.6719 74.3956 20.2159 74.6086 19.858C74.8217 19.5 75.1093 19.2166 75.4716 19.0078C75.8338 18.799 76.2386 18.6413 76.686 18.5348C77.1335 18.4283 77.5895 18.3473 78.0539 18.2919C78.642 18.2237 79.1193 18.1683 79.4858 18.1257C79.8522 18.0788 80.1186 18.0043 80.2848 17.902C80.451 17.7997 80.5341 17.6335 80.5341 17.4034V17.3587C80.5341 16.8004 80.3764 16.3679 80.061 16.0611C79.75 15.7543 79.2855 15.6009 78.6676 15.6009C78.0241 15.6009 77.517 15.7436 77.1463 16.0291C76.7798 16.3104 76.5262 16.6236 76.3856 16.9688L74.5895 16.5597C74.8025 15.9631 75.1136 15.4815 75.5227 15.1151C75.936 14.7443 76.4112 14.4759 76.9481 14.3097C77.485 14.1392 78.0497 14.054 78.642 14.054C79.0341 14.054 79.4495 14.1009 79.8885 14.1946C80.3316 14.2841 80.745 14.4503 81.1285 14.6932C81.5163 14.9361 81.8338 15.2834 82.0809 15.7351C82.3281 16.1825 82.4517 16.7642 82.4517 17.4801V24H80.5852V22.6577H80.5085C80.3849 22.9048 80.1995 23.1477 79.9524 23.3864C79.7052 23.625 79.3877 23.8232 79 23.9808C78.6122 24.1385 78.1477 24.2173 77.6065 24.2173ZM78.022 22.6832C78.5504 22.6832 79.0021 22.5788 79.3771 22.37C79.7564 22.1612 80.044 21.8885 80.24 21.5518C80.4403 21.2109 80.5404 20.8466 80.5404 20.4588V19.1932C80.4723 19.2614 80.3402 19.3253 80.1441 19.3849C79.9524 19.4403 79.7329 19.4893 79.4858 19.532C79.2386 19.5703 78.9978 19.6065 78.7635 19.6406C78.5291 19.6705 78.3331 19.696 78.1754 19.7173C77.8047 19.7642 77.4659 19.843 77.1591 19.9538C76.8565 20.0646 76.6136 20.2244 76.4304 20.4332C76.2514 20.6378 76.1619 20.9105 76.1619 21.2514C76.1619 21.7244 76.3366 22.0824 76.686 22.3253C77.0355 22.5639 77.4808 22.6832 78.022 22.6832ZM85.1973 24V14.1818H87.0446V15.7415H87.1469C87.3259 15.2131 87.6412 14.7976 88.0929 14.495C88.5489 14.1882 89.0645 14.0348 89.6398 14.0348C89.7591 14.0348 89.8997 14.0391 90.0616 14.0476C90.2278 14.0561 90.3578 14.0668 90.4516 14.0795V15.9077C90.3749 15.8864 90.2385 15.8629 90.0425 15.8374C89.8464 15.8075 89.6504 15.7926 89.4544 15.7926C89.0027 15.7926 88.6 15.8885 88.2463 16.0803C87.8969 16.2678 87.6199 16.5298 87.4153 16.8665C87.2108 17.1989 87.1085 17.5781 87.1085 18.0043V24H85.1973ZM97.4687 14.1818V15.7159H92.1058V14.1818H97.4687ZM93.544 11.8295H95.4552V21.1172C95.4552 21.4879 95.5106 21.767 95.6214 21.9545C95.7322 22.1378 95.8749 22.2635 96.0496 22.3317C96.2286 22.3956 96.4225 22.4276 96.6313 22.4276C96.7847 22.4276 96.919 22.4169 97.034 22.3956C97.1491 22.3743 97.2386 22.3572 97.3025 22.3445L97.6477 23.9233C97.5369 23.9659 97.3792 24.0085 97.1746 24.0511C96.9701 24.098 96.7144 24.1236 96.4076 24.1278C95.9048 24.1364 95.436 24.0469 95.0013 23.8594C94.5667 23.6719 94.2151 23.3821 93.9467 22.9901C93.6782 22.598 93.544 22.1058 93.544 21.5135V11.8295ZM100.991 27.6818C100.705 27.6818 100.445 27.6584 100.211 27.6115C99.9767 27.5689 99.802 27.522 99.687 27.4709L100.147 25.9048C100.497 25.9986 100.808 26.0391 101.08 26.0263C101.353 26.0135 101.594 25.9112 101.803 25.7195C102.016 25.5277 102.203 25.2145 102.365 24.7798L102.602 24.1278L99.0094 14.1818H101.055L103.541 21.8011H103.644L106.13 14.1818H108.182L104.136 25.3104C103.948 25.8217 103.71 26.2543 103.42 26.608C103.13 26.9659 102.785 27.2344 102.384 27.4134C101.984 27.5923 101.519 27.6818 100.991 27.6818ZM112.754 24.2173C112.132 24.2173 111.569 24.1023 111.067 23.8722C110.564 23.6378 110.165 23.299 109.871 22.8558C109.582 22.4126 109.437 21.8693 109.437 21.2259C109.437 20.6719 109.543 20.2159 109.756 19.858C109.969 19.5 110.257 19.2166 110.619 19.0078C110.981 18.799 111.386 18.6413 111.834 18.5348C112.281 18.4283 112.737 18.3473 113.202 18.2919C113.79 18.2237 114.267 18.1683 114.633 18.1257C115 18.0788 115.266 18.0043 115.432 17.902C115.599 17.7997 115.682 17.6335 115.682 17.4034V17.3587C115.682 16.8004 115.524 16.3679 115.209 16.0611C114.898 15.7543 114.433 15.6009 113.815 15.6009C113.172 15.6009 112.665 15.7436 112.294 16.0291C111.927 16.3104 111.674 16.6236 111.533 16.9688L109.737 16.5597C109.95 15.9631 110.261 15.4815 110.67 15.1151C111.084 14.7443 111.559 14.4759 112.096 14.3097C112.633 14.1392 113.197 14.054 113.79 14.054C114.182 14.054 114.597 14.1009 115.036 14.1946C115.479 14.2841 115.893 14.4503 116.276 14.6932C116.664 14.9361 116.981 15.2834 117.229 15.7351C117.476 16.1825 117.599 16.7642 117.599 17.4801V24H115.733V22.6577H115.656C115.533 22.9048 115.347 23.1477 115.1 23.3864C114.853 23.625 114.535 23.8232 114.148 23.9808C113.76 24.1385 113.295 24.2173 112.754 24.2173ZM113.17 22.6832C113.698 22.6832 114.15 22.5788 114.525 22.37C114.904 22.1612 115.192 21.8885 115.388 21.5518C115.588 21.2109 115.688 20.8466 115.688 20.4588V19.1932C115.62 19.2614 115.488 19.3253 115.292 19.3849C115.1 19.4403 114.881 19.4893 114.633 19.532C114.386 19.5703 114.145 19.6065 113.911 19.6406C113.677 19.6705 113.481 19.696 113.323 19.7173C112.952 19.7642 112.614 19.843 112.307 19.9538C112.004 20.0646 111.761 20.2244 111.578 20.4332C111.399 20.6378 111.31 20.9105 111.31 21.2514C111.31 21.7244 111.484 22.0824 111.834 22.3253C112.183 22.5639 112.628 22.6832 113.17 22.6832ZM122.103 20.6697L122.09 18.3366H122.422L126.334 14.1818H128.623L124.161 18.9119H123.861L122.103 20.6697ZM120.345 24V10.9091H122.256V24H120.345ZM126.545 24L123.03 19.3338L124.346 17.9979L128.891 24H126.545ZM133.422 24.2173C132.8 24.2173 132.237 24.1023 131.734 23.8722C131.231 23.6378 130.833 23.299 130.539 22.8558C130.249 22.4126 130.104 21.8693 130.104 21.2259C130.104 20.6719 130.211 20.2159 130.424 19.858C130.637 19.5 130.925 19.2166 131.287 19.0078C131.649 18.799 132.054 18.6413 132.501 18.5348C132.949 18.4283 133.405 18.3473 133.869 18.2919C134.457 18.2237 134.935 18.1683 135.301 18.1257C135.667 18.0788 135.934 18.0043 136.1 17.902C136.266 17.7997 136.349 17.6335 136.349 17.4034V17.3587C136.349 16.8004 136.192 16.3679 135.876 16.0611C135.565 15.7543 135.101 15.6009 134.483 15.6009C133.839 15.6009 133.332 15.7436 132.962 16.0291C132.595 16.3104 132.341 16.6236 132.201 16.9688L130.405 16.5597C130.618 15.9631 130.929 15.4815 131.338 15.1151C131.751 14.7443 132.226 14.4759 132.763 14.3097C133.3 14.1392 133.865 14.054 134.457 14.054C134.849 14.054 135.265 14.1009 135.704 14.1946C136.147 14.2841 136.56 14.4503 136.944 14.6932C137.332 14.9361 137.649 15.2834 137.896 15.7351C138.143 16.1825 138.267 16.7642 138.267 17.4801V24H136.4V22.6577H136.324C136.2 22.9048 136.015 23.1477 135.768 23.3864C135.52 23.625 135.203 23.8232 134.815 23.9808C134.427 24.1385 133.963 24.2173 133.422 24.2173ZM133.837 22.6832C134.366 22.6832 134.817 22.5788 135.192 22.37C135.572 22.1612 135.859 21.8885 136.055 21.5518C136.256 21.2109 136.356 20.8466 136.356 20.4588V19.1932C136.287 19.2614 136.155 19.3253 135.959 19.3849C135.768 19.4403 135.548 19.4893 135.301 19.532C135.054 19.5703 134.813 19.6065 134.579 19.6406C134.344 19.6705 134.148 19.696 133.991 19.7173C133.62 19.7642 133.281 19.843 132.974 19.9538C132.672 20.0646 132.429 20.2244 132.246 20.4332C132.067 20.6378 131.977 20.9105 131.977 21.2514C131.977 21.7244 132.152 22.0824 132.501 22.3253C132.851 22.5639 133.296 22.6832 133.837 22.6832Z" fill="#F6F3F7"/>
</svg>
